<!DOCTYPE svg PUBLIC "-//W3C//DTD SVG 20010904//EN" "http://www.w3.org/TR/2001/REC-SVG-20010904/DTD/svg10.dtd">
<svg version="1.0" xmlns="http://www.w3.org/2000/svg" width="425px" height="143px" viewBox="0 0 4250 1430" preserveAspectRatio="xMidYMid meet">
<g id="layer101" fill="#462314" stroke="none">
 <path d="M1638 1219 c-287 -14 -783 -70 -883 -99 -17 -5 576 -8 1400 -8 835 0 1415 4 1395 9 -137 34 -568 81 -915 99 -216 11 -762 11 -997 -1z"/>
 <path d="M2390 930 c0 -6 11 -16 25 -22 14 -6 28 -21 31 -32 2 -12 3 -106 2 -211 l-3 -190 -32 -15 c-18 -8 -33 -21 -33 -27 0 -10 43 -13 183 -13 206 0 252 12 281 69 54 104 -27 221 -153 221 -87 0 -124 -33 -49 -43 60 -8 88 -43 88 -107 0 -42 -4 -52 -31 -74 -33 -28 -95 -36 -117 -14 -8 8 -12 68 -12 203 0 211 0 211 64 232 17 5 32 15 34 21 3 9 -33 12 -137 12 -89 0 -141 -4 -141 -10z"/>
 <path d="M268 733 l-3 -198 -52 -3 -53 -3 0 -55 0 -54 175 0 175 0 0 55 0 55 -55 0 -55 0 0 200 0 200 -65 0 -65 0 -2 -197z"/>
 <path d="M503 873 c12 -32 56 -146 98 -253 l76 -195 73 0 73 0 93 245 c52 134 94 248 94 252 0 4 -31 8 -68 8 l-69 0 -13 -40 -13 -40 -98 0 -97 0 -16 40 -16 40 -70 0 -69 0 22 -57z m297 -135 c0 -21 -44 -148 -51 -148 -4 0 -17 30 -30 68 -12 37 -24 73 -27 80 -3 9 11 12 52 12 36 0 56 -4 56 -12z"/>
 <path d="M1062 678 l3 -253 130 0 c108 0 137 3 169 19 53 26 76 68 76 136 0 66 -24 111 -69 130 -17 7 -31 16 -31 21 0 5 32 49 70 98 39 48 70 91 70 95 0 3 -35 6 -77 6 l-78 0 -62 -97 -63 -98 0 98 0 97 -70 0 -70 0 2 -252z m228 -48 c40 -40 12 -96 -52 -107 l-38 -6 0 67 0 66 35 0 c22 0 43 -8 55 -20z"/>
 <path d="M1608 733 l-3 -198 -52 -3 -53 -3 0 -55 0 -54 175 0 175 0 0 55 0 55 -55 0 -55 0 0 200 0 200 -65 0 -65 0 -2 -197z"/>
 <path d="M1840 876 c12 -29 56 -143 98 -252 l78 -199 73 0 74 0 93 245 c51 135 93 248 94 253 0 4 -31 7 -70 7 l-69 0 -12 -40 -12 -40 -99 0 -98 0 -16 40 -16 40 -69 0 -69 0 20 -54z m300 -138 c0 -21 -44 -148 -51 -148 -4 0 -17 30 -30 68 -12 37 -24 73 -27 80 -3 9 11 12 52 12 36 0 56 -4 56 -12z"/>
 <path d="M2907 713 c47 -120 91 -234 97 -253 13 -35 13 -35 81 -38 37 -2 72 1 76 5 4 4 50 119 102 256 l94 247 -69 0 -70 0 -15 -40 -16 -40 -97 0 -97 0 -16 40 -15 40 -70 0 -70 0 85 -217z m235 31 c7 -7 -41 -154 -50 -154 -9 0 -60 148 -54 155 7 7 97 6 104 -1z"/>
 <path d="M3410 675 l0 -255 65 0 65 0 0 255 0 255 -65 0 -65 0 0 -255z"/>
 <path d="M3630 675 l0 -255 65 0 65 0 121 153 c66 83 125 153 130 155 5 2 9 -62 9 -153 l0 -156 63 3 62 3 3 253 2 252 -69 0 -70 0 -117 -150 c-65 -82 -121 -150 -126 -150 -4 0 -8 68 -8 150 l0 150 -65 0 -65 0 0 -255z"/>
 <path d="M732 245 c11 -11 235 -47 438 -69 331 -37 620 -48 1095 -43 450 5 590 12 865 42 164 18 396 54 424 65 12 5 -620 9 -1403 9 -783 1 -1422 -1 -1419 -4z"/>
 </g>

</svg>